<mxfile host="app.diagrams.net" agent="Mozilla/5.0 (Windows NT 10.0; Win64; x64) AppleWebKit/537.36 (KHTML, like Gecko) Chrome/127.0.0.0 Safari/537.36" version="24.7.6">
  <diagram name="Halaman-1" id="G223ThDWk4ninsWfmooM">
    <mxGraphModel dx="577" dy="602" grid="1" gridSize="10" guides="1" tooltips="1" connect="1" arrows="1" fold="1" page="1" pageScale="1" pageWidth="827" pageHeight="1169" math="0" shadow="0">
      <root>
        <mxCell id="0" />
        <mxCell id="1" parent="0" />
        <mxCell id="HSrVcN8znOqSFAAiqNZd-9" value="MAHASISWA" style="whiteSpace=wrap;html=1;align=center;" vertex="1" parent="1">
          <mxGeometry x="200" y="470" width="90" height="40" as="geometry" />
        </mxCell>
        <mxCell id="HSrVcN8znOqSFAAiqNZd-10" value="ANGGOTA&lt;div&gt;PERPUSTAKAAN&lt;/div&gt;" style="whiteSpace=wrap;html=1;align=center;" vertex="1" parent="1">
          <mxGeometry x="860" y="470" width="110" height="40" as="geometry" />
        </mxCell>
        <mxCell id="HSrVcN8znOqSFAAiqNZd-22" value="MENDAFTAR" style="shape=rhombus;perimeter=rhombusPerimeter;whiteSpace=wrap;html=1;align=center;" vertex="1" parent="1">
          <mxGeometry x="490" y="460" width="120" height="60" as="geometry" />
        </mxCell>
        <mxCell id="HSrVcN8znOqSFAAiqNZd-23" value="" style="endArrow=none;html=1;rounded=0;exitX=1;exitY=0.5;exitDx=0;exitDy=0;entryX=0;entryY=0.5;entryDx=0;entryDy=0;" edge="1" parent="1" source="HSrVcN8znOqSFAAiqNZd-9" target="HSrVcN8znOqSFAAiqNZd-22">
          <mxGeometry relative="1" as="geometry">
            <mxPoint x="230" y="500" as="sourcePoint" />
            <mxPoint x="330" y="520" as="targetPoint" />
          </mxGeometry>
        </mxCell>
        <mxCell id="HSrVcN8znOqSFAAiqNZd-24" value="" style="endArrow=none;html=1;rounded=0;exitX=1;exitY=0.5;exitDx=0;exitDy=0;entryX=0;entryY=0.5;entryDx=0;entryDy=0;" edge="1" parent="1" source="HSrVcN8znOqSFAAiqNZd-22" target="HSrVcN8znOqSFAAiqNZd-10">
          <mxGeometry relative="1" as="geometry">
            <mxPoint x="460" y="530" as="sourcePoint" />
            <mxPoint x="620" y="530" as="targetPoint" />
          </mxGeometry>
        </mxCell>
        <mxCell id="HSrVcN8znOqSFAAiqNZd-25" value="NAMA" style="ellipse;whiteSpace=wrap;html=1;align=center;" vertex="1" parent="1">
          <mxGeometry x="195" y="400" width="100" height="40" as="geometry" />
        </mxCell>
        <mxCell id="HSrVcN8znOqSFAAiqNZd-26" value="NAMA TENGAH" style="ellipse;whiteSpace=wrap;html=1;align=center;" vertex="1" parent="1">
          <mxGeometry x="200" y="320" width="100" height="40" as="geometry" />
        </mxCell>
        <mxCell id="HSrVcN8znOqSFAAiqNZd-27" value="NAMA DEPAN" style="ellipse;whiteSpace=wrap;html=1;align=center;" vertex="1" parent="1">
          <mxGeometry x="70" y="330" width="100" height="40" as="geometry" />
        </mxCell>
        <mxCell id="HSrVcN8znOqSFAAiqNZd-28" value="NIM" style="ellipse;whiteSpace=wrap;html=1;align=center;" vertex="1" parent="1">
          <mxGeometry x="60" y="410" width="100" height="40" as="geometry" />
        </mxCell>
        <mxCell id="HSrVcN8znOqSFAAiqNZd-29" value="JURUSAN" style="ellipse;whiteSpace=wrap;html=1;align=center;" vertex="1" parent="1">
          <mxGeometry x="20" y="480" width="100" height="40" as="geometry" />
        </mxCell>
        <mxCell id="HSrVcN8znOqSFAAiqNZd-30" value="ALAMAT" style="ellipse;whiteSpace=wrap;html=1;align=center;" vertex="1" parent="1">
          <mxGeometry x="50" y="550" width="100" height="40" as="geometry" />
        </mxCell>
        <mxCell id="HSrVcN8znOqSFAAiqNZd-31" value="NAMA BELAKANG" style="ellipse;whiteSpace=wrap;html=1;align=center;" vertex="1" parent="1">
          <mxGeometry x="330" y="350" width="110" height="40" as="geometry" />
        </mxCell>
        <mxCell id="HSrVcN8znOqSFAAiqNZd-32" value="ALAMAT" style="ellipse;whiteSpace=wrap;html=1;align=center;" vertex="1" parent="1">
          <mxGeometry x="430" y="410" width="100" height="40" as="geometry" />
        </mxCell>
        <mxCell id="HSrVcN8znOqSFAAiqNZd-33" value="JURUSAN" style="ellipse;whiteSpace=wrap;html=1;align=center;" vertex="1" parent="1">
          <mxGeometry x="480" y="348" width="100" height="40" as="geometry" />
        </mxCell>
        <mxCell id="HSrVcN8znOqSFAAiqNZd-34" value="NIM" style="ellipse;whiteSpace=wrap;html=1;align=center;" vertex="1" parent="1">
          <mxGeometry x="590" y="348" width="100" height="42" as="geometry" />
        </mxCell>
        <mxCell id="HSrVcN8znOqSFAAiqNZd-35" value="NAMA" style="ellipse;whiteSpace=wrap;html=1;align=center;" vertex="1" parent="1">
          <mxGeometry x="630" y="410" width="100" height="40" as="geometry" />
        </mxCell>
        <mxCell id="HSrVcN8znOqSFAAiqNZd-36" value="NOMOR ANGGOTA" style="ellipse;whiteSpace=wrap;html=1;align=center;" vertex="1" parent="1">
          <mxGeometry x="750" y="410" width="130" height="40" as="geometry" />
        </mxCell>
        <mxCell id="HSrVcN8znOqSFAAiqNZd-37" value="NAMA" style="ellipse;whiteSpace=wrap;html=1;align=center;" vertex="1" parent="1">
          <mxGeometry x="800" y="340" width="100" height="40" as="geometry" />
        </mxCell>
        <mxCell id="HSrVcN8znOqSFAAiqNZd-38" value="JURUSAN" style="ellipse;whiteSpace=wrap;html=1;align=center;" vertex="1" parent="1">
          <mxGeometry x="940" y="340" width="100" height="40" as="geometry" />
        </mxCell>
        <mxCell id="HSrVcN8znOqSFAAiqNZd-39" value="MASA BERLAKU" style="ellipse;whiteSpace=wrap;html=1;align=center;" vertex="1" parent="1">
          <mxGeometry x="970" y="410" width="120" height="40" as="geometry" />
        </mxCell>
        <mxCell id="HSrVcN8znOqSFAAiqNZd-40" value="" style="endArrow=none;html=1;rounded=0;exitX=0.5;exitY=0;exitDx=0;exitDy=0;entryX=0.5;entryY=1;entryDx=0;entryDy=0;" edge="1" parent="1" source="HSrVcN8znOqSFAAiqNZd-9" target="HSrVcN8znOqSFAAiqNZd-25">
          <mxGeometry relative="1" as="geometry">
            <mxPoint x="240" y="600" as="sourcePoint" />
            <mxPoint x="400" y="600" as="targetPoint" />
          </mxGeometry>
        </mxCell>
        <mxCell id="HSrVcN8znOqSFAAiqNZd-43" value="" style="endArrow=none;html=1;rounded=0;exitX=0.5;exitY=0;exitDx=0;exitDy=0;entryX=0.441;entryY=1.029;entryDx=0;entryDy=0;entryPerimeter=0;" edge="1" parent="1" source="HSrVcN8znOqSFAAiqNZd-25" target="HSrVcN8znOqSFAAiqNZd-26">
          <mxGeometry relative="1" as="geometry">
            <mxPoint x="250" y="590" as="sourcePoint" />
            <mxPoint x="410" y="590" as="targetPoint" />
          </mxGeometry>
        </mxCell>
        <mxCell id="HSrVcN8znOqSFAAiqNZd-44" value="" style="endArrow=none;html=1;rounded=0;exitX=0;exitY=0;exitDx=0;exitDy=0;entryX=1;entryY=1;entryDx=0;entryDy=0;" edge="1" parent="1" source="HSrVcN8znOqSFAAiqNZd-25" target="HSrVcN8znOqSFAAiqNZd-27">
          <mxGeometry relative="1" as="geometry">
            <mxPoint x="240" y="570" as="sourcePoint" />
            <mxPoint x="400" y="570" as="targetPoint" />
          </mxGeometry>
        </mxCell>
        <mxCell id="HSrVcN8znOqSFAAiqNZd-45" value="" style="endArrow=none;html=1;rounded=0;exitX=1;exitY=0;exitDx=0;exitDy=0;entryX=0;entryY=0.5;entryDx=0;entryDy=0;" edge="1" parent="1" source="HSrVcN8znOqSFAAiqNZd-25" target="HSrVcN8znOqSFAAiqNZd-31">
          <mxGeometry relative="1" as="geometry">
            <mxPoint x="250" y="580" as="sourcePoint" />
            <mxPoint x="410" y="580" as="targetPoint" />
          </mxGeometry>
        </mxCell>
        <mxCell id="HSrVcN8znOqSFAAiqNZd-46" value="" style="endArrow=none;html=1;rounded=0;exitX=0;exitY=0.25;exitDx=0;exitDy=0;entryX=1;entryY=1;entryDx=0;entryDy=0;" edge="1" parent="1" source="HSrVcN8znOqSFAAiqNZd-9" target="HSrVcN8znOqSFAAiqNZd-28">
          <mxGeometry relative="1" as="geometry">
            <mxPoint x="150" y="640" as="sourcePoint" />
            <mxPoint x="310" y="640" as="targetPoint" />
          </mxGeometry>
        </mxCell>
        <mxCell id="HSrVcN8znOqSFAAiqNZd-47" value="" style="endArrow=none;html=1;rounded=0;exitX=0;exitY=0.5;exitDx=0;exitDy=0;entryX=1;entryY=0.5;entryDx=0;entryDy=0;" edge="1" parent="1" source="HSrVcN8znOqSFAAiqNZd-9" target="HSrVcN8znOqSFAAiqNZd-29">
          <mxGeometry relative="1" as="geometry">
            <mxPoint x="210" y="630" as="sourcePoint" />
            <mxPoint x="370" y="630" as="targetPoint" />
          </mxGeometry>
        </mxCell>
        <mxCell id="HSrVcN8znOqSFAAiqNZd-48" value="" style="endArrow=none;html=1;rounded=0;exitX=0.7;exitY=0;exitDx=0;exitDy=0;entryX=0;entryY=0.75;entryDx=0;entryDy=0;exitPerimeter=0;" edge="1" parent="1" source="HSrVcN8znOqSFAAiqNZd-30" target="HSrVcN8znOqSFAAiqNZd-9">
          <mxGeometry relative="1" as="geometry">
            <mxPoint x="350" y="610" as="sourcePoint" />
            <mxPoint x="510" y="610" as="targetPoint" />
          </mxGeometry>
        </mxCell>
        <mxCell id="HSrVcN8znOqSFAAiqNZd-49" value="" style="endArrow=none;html=1;rounded=0;exitX=0.301;exitY=0.142;exitDx=0;exitDy=0;exitPerimeter=0;entryX=1;entryY=1;entryDx=0;entryDy=0;" edge="1" parent="1" source="HSrVcN8znOqSFAAiqNZd-22" target="HSrVcN8znOqSFAAiqNZd-32">
          <mxGeometry relative="1" as="geometry">
            <mxPoint x="320" y="560" as="sourcePoint" />
            <mxPoint x="480" y="560" as="targetPoint" />
          </mxGeometry>
        </mxCell>
        <mxCell id="HSrVcN8znOqSFAAiqNZd-50" value="" style="endArrow=none;html=1;rounded=0;exitX=0.5;exitY=0;exitDx=0;exitDy=0;entryX=0.577;entryY=0.987;entryDx=0;entryDy=0;entryPerimeter=0;" edge="1" parent="1" source="HSrVcN8znOqSFAAiqNZd-22" target="HSrVcN8znOqSFAAiqNZd-33">
          <mxGeometry relative="1" as="geometry">
            <mxPoint x="400" y="580" as="sourcePoint" />
            <mxPoint x="560" y="580" as="targetPoint" />
          </mxGeometry>
        </mxCell>
        <mxCell id="HSrVcN8znOqSFAAiqNZd-51" value="" style="endArrow=none;html=1;rounded=0;exitX=1;exitY=0;exitDx=0;exitDy=0;entryX=0.267;entryY=0.94;entryDx=0;entryDy=0;entryPerimeter=0;" edge="1" parent="1" source="HSrVcN8znOqSFAAiqNZd-22" target="HSrVcN8znOqSFAAiqNZd-34">
          <mxGeometry relative="1" as="geometry">
            <mxPoint x="470" y="610" as="sourcePoint" />
            <mxPoint x="630" y="610" as="targetPoint" />
          </mxGeometry>
        </mxCell>
        <mxCell id="HSrVcN8znOqSFAAiqNZd-52" value="" style="endArrow=none;html=1;rounded=0;exitX=0.889;exitY=0.335;exitDx=0;exitDy=0;exitPerimeter=0;entryX=0.062;entryY=0.726;entryDx=0;entryDy=0;entryPerimeter=0;" edge="1" parent="1" source="HSrVcN8znOqSFAAiqNZd-22" target="HSrVcN8znOqSFAAiqNZd-35">
          <mxGeometry relative="1" as="geometry">
            <mxPoint x="480" y="640" as="sourcePoint" />
            <mxPoint x="640" y="640" as="targetPoint" />
          </mxGeometry>
        </mxCell>
        <mxCell id="HSrVcN8znOqSFAAiqNZd-54" value="" style="endArrow=none;html=1;rounded=0;exitX=0;exitY=0;exitDx=0;exitDy=0;entryX=0.5;entryY=1;entryDx=0;entryDy=0;" edge="1" parent="1" source="HSrVcN8znOqSFAAiqNZd-10" target="HSrVcN8znOqSFAAiqNZd-36">
          <mxGeometry relative="1" as="geometry">
            <mxPoint x="730" y="610" as="sourcePoint" />
            <mxPoint x="890" y="610" as="targetPoint" />
          </mxGeometry>
        </mxCell>
        <mxCell id="HSrVcN8znOqSFAAiqNZd-55" value="" style="endArrow=none;html=1;rounded=0;exitX=0.439;exitY=-0.011;exitDx=0;exitDy=0;exitPerimeter=0;entryX=1;entryY=1;entryDx=0;entryDy=0;" edge="1" parent="1" source="HSrVcN8znOqSFAAiqNZd-10" target="HSrVcN8znOqSFAAiqNZd-37">
          <mxGeometry relative="1" as="geometry">
            <mxPoint x="730" y="670" as="sourcePoint" />
            <mxPoint x="890" y="670" as="targetPoint" />
          </mxGeometry>
        </mxCell>
        <mxCell id="HSrVcN8znOqSFAAiqNZd-56" value="" style="endArrow=none;html=1;rounded=0;exitX=0.668;exitY=0.016;exitDx=0;exitDy=0;exitPerimeter=0;entryX=0.241;entryY=1.029;entryDx=0;entryDy=0;entryPerimeter=0;" edge="1" parent="1" source="HSrVcN8znOqSFAAiqNZd-10" target="HSrVcN8znOqSFAAiqNZd-38">
          <mxGeometry relative="1" as="geometry">
            <mxPoint x="730" y="730" as="sourcePoint" />
            <mxPoint x="890" y="730" as="targetPoint" />
          </mxGeometry>
        </mxCell>
        <mxCell id="HSrVcN8znOqSFAAiqNZd-57" value="" style="endArrow=none;html=1;rounded=0;exitX=0.75;exitY=0;exitDx=0;exitDy=0;entryX=0;entryY=1;entryDx=0;entryDy=0;" edge="1" parent="1" source="HSrVcN8znOqSFAAiqNZd-10" target="HSrVcN8znOqSFAAiqNZd-39">
          <mxGeometry relative="1" as="geometry">
            <mxPoint x="980" y="680" as="sourcePoint" />
            <mxPoint x="1140" y="680" as="targetPoint" />
          </mxGeometry>
        </mxCell>
        <mxCell id="HSrVcN8znOqSFAAiqNZd-58" value="MEMINJAM" style="shape=rhombus;perimeter=rhombusPerimeter;whiteSpace=wrap;html=1;align=center;" vertex="1" parent="1">
          <mxGeometry x="855" y="650" width="120" height="60" as="geometry" />
        </mxCell>
        <mxCell id="HSrVcN8znOqSFAAiqNZd-59" value="" style="endArrow=none;html=1;rounded=0;exitX=0.5;exitY=0;exitDx=0;exitDy=0;entryX=0.5;entryY=1;entryDx=0;entryDy=0;" edge="1" parent="1" source="HSrVcN8znOqSFAAiqNZd-58" target="HSrVcN8znOqSFAAiqNZd-10">
          <mxGeometry relative="1" as="geometry">
            <mxPoint x="800" y="710" as="sourcePoint" />
            <mxPoint x="960" y="710" as="targetPoint" />
          </mxGeometry>
        </mxCell>
        <mxCell id="HSrVcN8znOqSFAAiqNZd-60" value="KODE PEMINJAMAN" style="ellipse;whiteSpace=wrap;html=1;align=center;" vertex="1" parent="1">
          <mxGeometry x="660" y="580" width="140" height="40" as="geometry" />
        </mxCell>
        <mxCell id="HSrVcN8znOqSFAAiqNZd-61" value="TANGGAL KEMBALI" style="ellipse;whiteSpace=wrap;html=1;align=center;" vertex="1" parent="1">
          <mxGeometry x="660" y="650" width="120" height="40" as="geometry" />
        </mxCell>
        <mxCell id="HSrVcN8znOqSFAAiqNZd-62" value="TANGGAL PINJAM" style="ellipse;whiteSpace=wrap;html=1;align=center;" vertex="1" parent="1">
          <mxGeometry x="660" y="720" width="130" height="40" as="geometry" />
        </mxCell>
        <mxCell id="HSrVcN8znOqSFAAiqNZd-63" value="NOMOR ANGGOTA" style="ellipse;whiteSpace=wrap;html=1;align=center;" vertex="1" parent="1">
          <mxGeometry x="990" y="580" width="130" height="40" as="geometry" />
        </mxCell>
        <mxCell id="HSrVcN8znOqSFAAiqNZd-64" value="NOMOR BUKU" style="ellipse;whiteSpace=wrap;html=1;align=center;" vertex="1" parent="1">
          <mxGeometry x="1030" y="640" width="120" height="40" as="geometry" />
        </mxCell>
        <mxCell id="HSrVcN8znOqSFAAiqNZd-65" value="JUDUL BUKU" style="ellipse;whiteSpace=wrap;html=1;align=center;" vertex="1" parent="1">
          <mxGeometry x="1030" y="710" width="120" height="40" as="geometry" />
        </mxCell>
        <mxCell id="HSrVcN8znOqSFAAiqNZd-66" value="DENDA" style="ellipse;whiteSpace=wrap;html=1;align=center;" vertex="1" parent="1">
          <mxGeometry x="980" y="780" width="110" height="40" as="geometry" />
        </mxCell>
        <mxCell id="HSrVcN8znOqSFAAiqNZd-67" value="" style="endArrow=none;html=1;rounded=0;exitX=0;exitY=0.5;exitDx=0;exitDy=0;entryX=1;entryY=0.5;entryDx=0;entryDy=0;" edge="1" parent="1" source="HSrVcN8znOqSFAAiqNZd-58" target="HSrVcN8znOqSFAAiqNZd-61">
          <mxGeometry relative="1" as="geometry">
            <mxPoint x="700" y="850" as="sourcePoint" />
            <mxPoint x="860" y="850" as="targetPoint" />
          </mxGeometry>
        </mxCell>
        <mxCell id="HSrVcN8znOqSFAAiqNZd-68" value="" style="endArrow=none;html=1;rounded=0;exitX=0;exitY=0.5;exitDx=0;exitDy=0;entryX=1;entryY=0.5;entryDx=0;entryDy=0;" edge="1" parent="1" source="HSrVcN8znOqSFAAiqNZd-58" target="HSrVcN8znOqSFAAiqNZd-60">
          <mxGeometry relative="1" as="geometry">
            <mxPoint x="700" y="810" as="sourcePoint" />
            <mxPoint x="860" y="810" as="targetPoint" />
          </mxGeometry>
        </mxCell>
        <mxCell id="HSrVcN8znOqSFAAiqNZd-69" value="" style="endArrow=none;html=1;rounded=0;exitX=0;exitY=0.5;exitDx=0;exitDy=0;entryX=1;entryY=0.5;entryDx=0;entryDy=0;" edge="1" parent="1" source="HSrVcN8znOqSFAAiqNZd-58" target="HSrVcN8znOqSFAAiqNZd-62">
          <mxGeometry relative="1" as="geometry">
            <mxPoint x="710" y="890" as="sourcePoint" />
            <mxPoint x="870" y="890" as="targetPoint" />
          </mxGeometry>
        </mxCell>
        <mxCell id="HSrVcN8znOqSFAAiqNZd-70" value="" style="endArrow=none;html=1;rounded=0;exitX=1;exitY=0.5;exitDx=0;exitDy=0;entryX=0.383;entryY=1.055;entryDx=0;entryDy=0;entryPerimeter=0;" edge="1" parent="1" source="HSrVcN8znOqSFAAiqNZd-58" target="HSrVcN8znOqSFAAiqNZd-63">
          <mxGeometry relative="1" as="geometry">
            <mxPoint x="740" y="800" as="sourcePoint" />
            <mxPoint x="900" y="800" as="targetPoint" />
          </mxGeometry>
        </mxCell>
        <mxCell id="HSrVcN8znOqSFAAiqNZd-71" value="" style="endArrow=none;html=1;rounded=0;exitX=1;exitY=0.5;exitDx=0;exitDy=0;entryX=0;entryY=1;entryDx=0;entryDy=0;" edge="1" parent="1" source="HSrVcN8znOqSFAAiqNZd-58" target="HSrVcN8znOqSFAAiqNZd-64">
          <mxGeometry relative="1" as="geometry">
            <mxPoint x="710" y="850" as="sourcePoint" />
            <mxPoint x="870" y="850" as="targetPoint" />
          </mxGeometry>
        </mxCell>
        <mxCell id="HSrVcN8znOqSFAAiqNZd-72" value="" style="endArrow=none;html=1;rounded=0;exitX=1;exitY=0.5;exitDx=0;exitDy=0;entryX=0.067;entryY=0.147;entryDx=0;entryDy=0;entryPerimeter=0;" edge="1" parent="1" source="HSrVcN8znOqSFAAiqNZd-58" target="HSrVcN8znOqSFAAiqNZd-65">
          <mxGeometry relative="1" as="geometry">
            <mxPoint x="720" y="890" as="sourcePoint" />
            <mxPoint x="880" y="890" as="targetPoint" />
          </mxGeometry>
        </mxCell>
        <mxCell id="HSrVcN8znOqSFAAiqNZd-73" value="" style="endArrow=none;html=1;rounded=0;exitX=1;exitY=0.5;exitDx=0;exitDy=0;entryX=0.5;entryY=0;entryDx=0;entryDy=0;" edge="1" parent="1" source="HSrVcN8znOqSFAAiqNZd-58" target="HSrVcN8znOqSFAAiqNZd-66">
          <mxGeometry relative="1" as="geometry">
            <mxPoint x="720" y="930" as="sourcePoint" />
            <mxPoint x="880" y="930" as="targetPoint" />
          </mxGeometry>
        </mxCell>
        <mxCell id="HSrVcN8znOqSFAAiqNZd-74" value="BUKU" style="whiteSpace=wrap;html=1;align=center;" vertex="1" parent="1">
          <mxGeometry x="865" y="870" width="100" height="40" as="geometry" />
        </mxCell>
        <mxCell id="HSrVcN8znOqSFAAiqNZd-75" value="" style="endArrow=none;html=1;rounded=0;exitX=0.5;exitY=1;exitDx=0;exitDy=0;entryX=0.5;entryY=0;entryDx=0;entryDy=0;" edge="1" parent="1" source="HSrVcN8znOqSFAAiqNZd-58" target="HSrVcN8znOqSFAAiqNZd-74">
          <mxGeometry relative="1" as="geometry">
            <mxPoint x="650" y="820" as="sourcePoint" />
            <mxPoint x="810" y="820" as="targetPoint" />
          </mxGeometry>
        </mxCell>
        <mxCell id="HSrVcN8znOqSFAAiqNZd-77" value="JUDUL BUKU" style="ellipse;whiteSpace=wrap;html=1;align=center;" vertex="1" parent="1">
          <mxGeometry x="727" y="900" width="100" height="40" as="geometry" />
        </mxCell>
        <mxCell id="HSrVcN8znOqSFAAiqNZd-78" value="NOMOR BUKU" style="ellipse;whiteSpace=wrap;html=1;align=center;" vertex="1" parent="1">
          <mxGeometry x="710" y="971" width="100" height="40" as="geometry" />
        </mxCell>
        <mxCell id="HSrVcN8znOqSFAAiqNZd-79" value="TAHUN TERBIT" style="ellipse;whiteSpace=wrap;html=1;align=center;" vertex="1" parent="1">
          <mxGeometry x="790" y="1030" width="100" height="40" as="geometry" />
        </mxCell>
        <mxCell id="HSrVcN8znOqSFAAiqNZd-80" value="PENERBIT" style="ellipse;whiteSpace=wrap;html=1;align=center;" vertex="1" parent="1">
          <mxGeometry x="910" y="1030" width="100" height="40" as="geometry" />
        </mxCell>
        <mxCell id="HSrVcN8znOqSFAAiqNZd-81" value="JENIS BUKU" style="ellipse;whiteSpace=wrap;html=1;align=center;" vertex="1" parent="1">
          <mxGeometry x="1003" y="970" width="100" height="40" as="geometry" />
        </mxCell>
        <mxCell id="HSrVcN8znOqSFAAiqNZd-82" value="PENGARANG" style="ellipse;whiteSpace=wrap;html=1;align=center;" vertex="1" parent="1">
          <mxGeometry x="1007" y="901" width="100" height="40" as="geometry" />
        </mxCell>
        <mxCell id="HSrVcN8znOqSFAAiqNZd-86" value="" style="endArrow=none;html=1;rounded=0;entryX=1;entryY=1;entryDx=0;entryDy=0;exitX=0;exitY=0.5;exitDx=0;exitDy=0;" edge="1" parent="1" source="HSrVcN8znOqSFAAiqNZd-82" target="HSrVcN8znOqSFAAiqNZd-74">
          <mxGeometry relative="1" as="geometry">
            <mxPoint x="670" y="780" as="sourcePoint" />
            <mxPoint x="830" y="780" as="targetPoint" />
          </mxGeometry>
        </mxCell>
        <mxCell id="HSrVcN8znOqSFAAiqNZd-87" value="" style="endArrow=none;html=1;rounded=0;entryX=0.75;entryY=1;entryDx=0;entryDy=0;exitX=0.063;exitY=0.226;exitDx=0;exitDy=0;exitPerimeter=0;" edge="1" parent="1" source="HSrVcN8znOqSFAAiqNZd-81" target="HSrVcN8znOqSFAAiqNZd-74">
          <mxGeometry relative="1" as="geometry">
            <mxPoint x="680" y="800" as="sourcePoint" />
            <mxPoint x="840" y="800" as="targetPoint" />
          </mxGeometry>
        </mxCell>
        <mxCell id="HSrVcN8znOqSFAAiqNZd-88" value="" style="endArrow=none;html=1;rounded=0;entryX=0.612;entryY=1.016;entryDx=0;entryDy=0;entryPerimeter=0;exitX=0.383;exitY=-0.037;exitDx=0;exitDy=0;exitPerimeter=0;" edge="1" parent="1" source="HSrVcN8znOqSFAAiqNZd-80" target="HSrVcN8znOqSFAAiqNZd-74">
          <mxGeometry relative="1" as="geometry">
            <mxPoint x="690" y="810" as="sourcePoint" />
            <mxPoint x="850" y="810" as="targetPoint" />
          </mxGeometry>
        </mxCell>
        <mxCell id="HSrVcN8znOqSFAAiqNZd-89" value="" style="endArrow=none;html=1;rounded=0;entryX=0.369;entryY=1.042;entryDx=0;entryDy=0;entryPerimeter=0;exitX=0.962;exitY=0.28;exitDx=0;exitDy=0;exitPerimeter=0;" edge="1" parent="1" source="HSrVcN8znOqSFAAiqNZd-78" target="HSrVcN8znOqSFAAiqNZd-74">
          <mxGeometry relative="1" as="geometry">
            <mxPoint x="670" y="850" as="sourcePoint" />
            <mxPoint x="830" y="850" as="targetPoint" />
          </mxGeometry>
        </mxCell>
        <mxCell id="HSrVcN8znOqSFAAiqNZd-90" value="" style="endArrow=none;html=1;rounded=0;entryX=0.25;entryY=1;entryDx=0;entryDy=0;exitX=1;exitY=0.5;exitDx=0;exitDy=0;" edge="1" parent="1" source="HSrVcN8znOqSFAAiqNZd-77" target="HSrVcN8znOqSFAAiqNZd-74">
          <mxGeometry relative="1" as="geometry">
            <mxPoint x="620" y="870" as="sourcePoint" />
            <mxPoint x="780" y="870" as="targetPoint" />
          </mxGeometry>
        </mxCell>
        <mxCell id="HSrVcN8znOqSFAAiqNZd-91" value="" style="endArrow=none;html=1;rounded=0;exitX=0.619;exitY=-0.011;exitDx=0;exitDy=0;exitPerimeter=0;entryX=0.5;entryY=1;entryDx=0;entryDy=0;" edge="1" parent="1" source="HSrVcN8znOqSFAAiqNZd-79" target="HSrVcN8znOqSFAAiqNZd-74">
          <mxGeometry relative="1" as="geometry">
            <mxPoint x="690" y="830" as="sourcePoint" />
            <mxPoint x="910" y="920" as="targetPoint" />
          </mxGeometry>
        </mxCell>
        <mxCell id="HSrVcN8znOqSFAAiqNZd-93" style="edgeStyle=orthogonalEdgeStyle;rounded=0;orthogonalLoop=1;jettySize=auto;html=1;exitX=0.5;exitY=1;exitDx=0;exitDy=0;" edge="1" parent="1" source="HSrVcN8znOqSFAAiqNZd-79" target="HSrVcN8znOqSFAAiqNZd-79">
          <mxGeometry relative="1" as="geometry" />
        </mxCell>
      </root>
    </mxGraphModel>
  </diagram>
</mxfile>
